<svg width="24" height="24" viewBox="0 0 24 24" fill="none" xmlns="http://www.w3.org/2000/svg">
<path d="M17.1562 0.281281H6.84375C5.10327 0.281281 3.43407 0.972685 2.20336 2.20339C0.972654 3.4341 0.28125 5.1033 0.28125 6.84378V17.1563C0.28125 18.8968 0.972654 20.566 2.20336 21.7967C3.43407 23.0274 5.10327 23.7188 6.84375 23.7188H17.1562C18.8967 23.7188 20.5659 23.0274 21.7966 21.7967C23.0273 20.566 23.7188 18.8968 23.7188 17.1563V6.84378C23.7188 5.1033 23.0273 3.4341 21.7966 2.20339C20.5659 0.972685 18.8967 0.281281 17.1562 0.281281ZM12 17.625C10.8875 17.625 9.79994 17.2951 8.87492 16.677C7.94989 16.059 7.22892 15.1805 6.80318 14.1526C6.37743 13.1248 6.26604 11.9938 6.48308 10.9026C6.70013 9.8115 7.23585 8.80923 8.02252 8.02255C8.80919 7.23588 9.81147 6.70016 10.9026 6.48311C11.9938 6.26607 13.1248 6.37747 14.1526 6.80321C15.1804 7.22895 16.0589 7.94992 16.677 8.87495C17.2951 9.79997 17.625 10.8875 17.625 12C17.625 13.4919 17.0324 14.9226 15.9775 15.9775C14.9226 17.0324 13.4918 17.625 12 17.625ZM18.0938 7.31253C17.8156 7.31253 17.5437 7.23006 17.3125 7.07553C17.0812 6.92101 16.901 6.70139 16.7945 6.44443C16.6881 6.18747 16.6603 5.90472 16.7145 5.63193C16.7688 5.35915 16.9027 5.10858 17.0994 4.91191C17.296 4.71524 17.5466 4.58131 17.8194 4.52705C18.0922 4.47279 18.3749 4.50064 18.6319 4.60707C18.8889 4.71351 19.1085 4.89375 19.263 5.12501C19.4175 5.35627 19.5 5.62815 19.5 5.90628C19.5 6.27924 19.3518 6.63693 19.0881 6.90065C18.8244 7.16437 18.4667 7.31253 18.0938 7.31253Z" fill="white"/>
</svg>
